PathFileType	4	(x/y/z)	S01_P20_T17
DataRate	CameraRate	NumFrames	NumMarkers	Units	OrigDataRate	OrigDataStartFrame	OrigNumFrames
240	240	9	51	mm	240	1	418
Frame#	Time	Sternum			R.Acromium			L.Acromium			Top.Head			R.ASIS			L.ASIS			R.PSIS			L.PSIS			R.Great.Tro			L.Great.Tro			R.Iliac.Crest			L.Iliac.Crest			V.Sacral			R.Thigh.Upper.Post			R.Thigh.Lower.Ant			R.Thigh.Lower.Post			R.Thigh.Upper.Ant			R.Knee.Lat			R.Knee.Med			R.Shank.Upper.Post			R.Shank.Lower.Ant			R.Shank.Lower.Post			R.Shank.Upper.Ant			R.Ankle.Lat			R.Ankle.Med			R.Heel.Upper			R.Heel.Med			R.Heel.Lat			R.Toe.Lat			R.Toe.Med			R.Toe.Tip			L.Thigh.Upper.Post			L.Thigh.Lower.Ant			L.Thigh.Lower.Post			L.Thigh.Upper.Ant			L.Knee.Lat			L.Knee.Med			L.Shank.Upper.Post			L.Shank.Lower.Ant			L.Shank.Lower.Post			L.Shank.Upper.Ant			L.Ankle.Lat			L.Ankle.Med			L.Heel.Upper			L.Heel.Med			L.Heel.Lat			L.Toe.Lat			L.Toe.Med			L.Toe.Tip			Cervical.Spine			Back			
		X1	Y1	Z1	X2	Y2	Z2	X3	Y3	Z3	X4	Y4	Z4	X5	Y5	Z5	X6	Y6	Z6	X7	Y7	Z7	X8	Y8	Z8	X9	Y9	Z9	X10	Y10	Z10	X11	Y11	Z11	X12	Y12	Z12	X13	Y13	Z13	X14	Y14	Z14	X15	Y15	Z15	X16	Y16	Z16	X17	Y17	Z17	X18	Y18	Z18	X19	Y19	Z19	X20	Y20	Z20	X21	Y21	Z21	X22	Y22	Z22	X23	Y23	Z23	X24	Y24	Z24	X25	Y25	Z25	X26	Y26	Z26	X27	Y27	Z27	X28	Y28	Z28	X29	Y29	Z29	X30	Y30	Z30	X31	Y31	Z31	X32	Y32	Z32	X33	Y33	Z33	X34	Y34	Z34	X35	Y35	Z35	X36	Y36	Z36	X37	Y37	Z37	X38	Y38	Z38	X39	Y39	Z39	X40	Y40	Z40	X41	Y41	Z41	X42	Y42	Z42	X43	Y43	Z43	X44	Y44	Z44	X45	Y45	Z45	X46	Y46	Z46	X47	Y47	Z47	X48	Y48	Z48	X49	Y49	Z49	X50	Y50	Z50	X51	Y51	Z51	

1	0	NaN	NaN	NaN	-1320.4	1520.3	475.69	-1396.6	1550.1	156.43	-1367.8	1850.6	320.91	NaN	NaN	NaN	NaN	NaN	NaN	-1543.9	1077.6	353.32	-1547.3	1073.9	250.25	-1392.2	967.16	519.09	-1412.9	986.42	93.079	-1380.5	1114.4	510.47	-1423.1	1115.5	105.89	-1558.4	1039.4	299.8	-1481.2	679.96	489.49	-1425.6	594.05	459.36	-1504.8	596.67	468.25	-1408.1	678.02	483.41	-1507	526.5	460.7	NaN	NaN	NaN	-1612.1	392.39	475.68	NaN	NaN	NaN	-1640.2	328.59	463.19	-1559.3	360.71	454.78	-1708.4	133.61	424.09	-1667.2	130.89	333.68	-1774.4	112.71	360.43	-1762	79.981	333.53	-1773.7	81.401	396.59	-1597.2	41.185	470.29	-1549.9	47.123	348.91	NaN	NaN	NaN	-1346.3	698.44	110.31	-1244	658.46	101.78	-1305.6	617.95	129.09	-1291.6	738.52	83.673	-1227	558.13	114.95	-1199.1	563.82	257.96	-1249.7	414.59	97.736	-1168	339.98	115.67	-1230	336.7	99.873	-1184.4	414.93	109.16	-1193.9	121.26	133.29	-1164.6	142.95	228.71	-1247.7	68.968	185.2	-1229.1	49.695	218.05	-1235.1	47.172	155.69	-1035.5	91.444	107.17	-1007.1	109.63	226.02	-956.66	143.24	170.24	-1451.2	1596.6	337.74	-1553.8	1281.9	350.37
2	0.0041667	NaN	NaN	NaN	-1316.3	1519.5	475.05	-1391.7	1549	155.68	-1363.2	1849.8	320.27	NaN	NaN	NaN	NaN	NaN	NaN	-1539.1	1076.6	352.57	-1542.4	1072.8	249.53	-1387.6	966.6	518.78	-1407.6	985.2	92.775	-1376.1	1113.6	510.12	-1418.1	1114.3	105.35	-1553.6	1038.4	299.12	-1477	679.53	489.45	-1421.4	593.5	459.49	-1500.4	596.08	468.4	-1403.6	677.5	483.33	-1502.9	525.9	460.86	NaN	NaN	NaN	-1609.2	392.8	475.85	NaN	NaN	NaN	-1637.7	329.16	463.37	-1556.2	360.69	455.11	-1707.2	134.44	424.34	-1666.8	131.95	334	-1773.8	114.29	360.82	-1761.6	81.603	333.78	-1773.3	82.928	396.85	-1597.3	41.183	470.35	-1549.9	47.122	349.01	NaN	NaN	NaN	-1340.9	697.43	110.32	-1238.5	657.43	102.36	-1300.4	616.89	129.15	-1286.1	737.58	84.077	-1222.1	556.83	115.35	-1194.4	562.91	257.98	-1245.8	413.28	98.374	-1164.5	338.24	116.54	-1226.2	335.29	100.57	-1180.3	413.35	109.86	-1191.3	119.96	134.26	-1161.9	141.43	229.73	-1245.4	68.198	186.16	-1227	48.742	218.95	-1232.9	46.289	156.65	-1033.1	89.221	108.4	-1004.7	107.3	227.27	-953.97	140.51	171.57	-1446.7	1595.7	336.98	-1549.2	1280.8	349.49
3	0.0083333	NaN	NaN	NaN	-1312.1	1518.6	474.38	-1386.7	1547.9	154.89	-1358.4	1848.9	319.6	NaN	NaN	NaN	NaN	NaN	NaN	-1534	1075.6	351.8	-1537.2	1071.6	248.78	-1382.8	966.01	518.45	-1402.1	983.94	92.455	-1371.5	1112.7	509.75	-1412.8	1113	104.77	-1548.5	1037.3	298.42	-1472.5	679.07	489.42	-1416.9	592.94	459.64	-1495.8	595.46	468.56	-1398.8	676.96	483.24	-1498.5	525.28	461.05	NaN	NaN	NaN	-1606.1	393.24	476.02	NaN	NaN	NaN	-1635.1	329.78	463.56	-1553	360.69	455.48	-1705.9	135.34	424.61	-1666.3	133.08	334.36	-1773.2	115.98	361.24	-1761.1	83.349	334.04	-1772.9	84.573	397.13	-1597.3	41.179	470.42	-1549.9	47.119	349.11	NaN	NaN	NaN	-1335.3	696.37	110.35	-1232.9	656.35	102.96	-1295	615.79	129.22	-1280.5	736.6	84.496	-1217.1	555.47	115.77	-1189.5	561.95	258.03	-1241.6	411.94	99.03	-1160.9	336.46	117.44	-1222.3	333.83	101.29	-1176.1	411.72	110.59	-1188.6	118.65	135.23	-1159.3	139.85	230.76	-1243.1	67.468	187.11	-1224.9	47.814	219.84	-1230.7	45.439	157.6	-1030.6	86.88	109.66	-1002.3	104.8	228.55	-951.23	137.57	172.95	-1442.1	1594.7	336.16	-1544.4	1279.6	348.57
4	0.0125	NaN	NaN	NaN	-1307.6	1517.7	473.68	-1381.4	1546.8	154.06	-1353.4	1848	318.9	NaN	NaN	NaN	NaN	NaN	NaN	-1528.7	1074.6	351.01	-1531.8	1070.4	248	-1377.8	965.4	518.11	-1396.4	982.64	92.122	-1366.7	1111.8	509.35	-1407.3	1111.6	104.16	-1543.3	1036.2	297.68	-1467.9	678.58	489.39	-1412.2	592.35	459.8	-1490.9	594.82	468.73	-1393.8	676.4	483.17	-1494.1	524.66	461.27	NaN	NaN	NaN	-1602.8	393.71	476.21	NaN	NaN	NaN	-1632.2	330.45	463.76	-1549.6	360.7	455.87	-1704.6	136.34	424.91	-1665.7	134.28	334.74	-1772.6	117.81	361.67	-1760.6	85.225	334.31	-1772.5	86.341	397.41	-1597.3	41.174	470.49	-1549.8	47.112	349.21	NaN	NaN	NaN	-1329.6	695.28	110.4	-1227.2	655.22	103.56	-1289.5	614.65	129.31	-1274.6	735.56	84.927	-1211.9	554.06	116.22	-1184.5	560.93	258.1	-1237.4	410.57	99.697	-1157.1	334.63	118.36	-1218.3	332.36	102.02	-1171.7	410.04	111.35	-1185.9	117.34	136.19	-1156.6	138.22	231.78	-1240.9	66.798	188.03	-1222.9	46.928	220.7	-1228.6	44.641	158.52	-1028.2	84.432	110.92	-999.89	102.13	229.84	-948.46	134.42	174.36	-1437.3	1593.7	335.3	-1539.4	1278.3	347.6
5	0.016667	NaN	NaN	NaN	-1303.1	1516.8	472.95	-1376	1545.6	153.19	-1348.2	1847.1	318.17	NaN	NaN	NaN	NaN	NaN	NaN	-1523.3	1073.6	350.19	-1526.2	1069.2	247.2	-1372.6	964.78	517.75	-1390.5	981.32	91.776	-1361.8	1111	508.94	-1401.6	1110.3	103.52	-1537.9	1035.1	296.93	-1463	678.07	489.37	-1407.2	591.75	459.98	-1485.8	594.16	468.91	-1388.6	675.84	483.1	-1489.4	524.04	461.52	NaN	NaN	NaN	-1599.3	394.21	476.41	NaN	NaN	NaN	-1629.3	331.16	463.99	-1546	360.73	456.3	-1703.2	137.42	425.24	-1665	135.53	335.15	-1771.9	119.77	362.12	-1760.1	87.236	334.59	-1772.1	88.238	397.71	-1597.4	41.17	470.56	-1549.8	47.102	349.31	NaN	NaN	NaN	-1323.7	694.17	110.46	-1221.4	654.05	104.16	-1283.8	613.48	129.41	-1268.7	734.49	85.365	-1206.6	552.61	116.67	-1179.4	559.88	258.19	-1232.9	409.2	100.37	-1153.2	332.77	119.29	-1214.2	330.89	102.75	-1167.3	408.34	112.13	-1183.3	116.04	137.11	-1153.9	136.56	232.78	-1238.7	66.204	188.9	-1221	46.102	221.52	-1226.6	43.913	159.39	-1025.7	81.891	112.18	-997.53	99.309	231.14	-945.71	131.08	175.78	-1432.4	1592.8	334.39	-1534.3	1277.1	346.59
6	0.020833	NaN	NaN	NaN	-1298.4	1515.9	472.2	-1370.5	1544.4	152.27	-1343	1846.2	317.41	NaN	NaN	NaN	NaN	NaN	NaN	-1517.7	1072.5	349.36	-1520.5	1068	246.39	-1367.3	964.15	517.38	-1384.4	979.98	91.42	-1356.8	1110.1	508.51	-1395.7	1108.9	102.85	-1532.3	1033.9	296.15	-1457.9	677.53	489.35	-1402.1	591.14	460.17	-1480.5	593.48	469.09	-1383.2	675.26	483.06	-1484.7	523.42	461.81	NaN	NaN	NaN	-1595.6	394.74	476.64	NaN	NaN	NaN	-1626.1	331.92	464.22	-1542.3	360.79	456.76	-1701.8	138.61	425.59	-1664.2	136.85	335.59	-1771	121.88	362.59	-1759.4	89.389	334.87	-1771.6	90.272	398.01	-1597.4	41.168	470.63	-1549.7	47.09	349.41	NaN	NaN	NaN	-1317.8	693.03	110.53	-1215.5	652.83	104.74	-1278.2	612.28	129.54	-1262.7	733.38	85.805	-1201.2	551.15	117.14	-1174.3	558.78	258.32	-1228.4	407.84	101.03	-1149.2	330.91	120.22	-1210	329.43	103.47	-1162.7	406.62	112.93	-1180.6	114.77	138	-1151.3	134.89	233.75	-1236.5	65.701	189.71	-1219.1	45.351	222.29	-1224.6	43.269	160.2	-1023.4	79.273	113.41	-995.24	96.338	232.43	-942.99	127.55	177.2	-1427.3	1591.8	333.43	-1529.1	1275.8	345.54
7	0.025	NaN	NaN	NaN	-1293.6	1514.9	471.43	-1364.9	1543.3	151.32	-1337.6	1845.3	316.62	NaN	NaN	NaN	NaN	NaN	NaN	-1512.1	1071.5	348.52	-1514.7	1066.8	245.56	-1361.8	963.51	516.99	-1378.1	978.65	91.054	-1351.6	1109.2	508.06	-1389.7	1107.6	102.16	-1526.6	1032.8	295.37	-1452.7	676.97	489.33	-1396.7	590.51	460.39	-1475	592.77	469.29	-1377.6	674.68	483.03	-1479.8	522.81	462.14	NaN	NaN	NaN	-1591.8	395.31	476.87	NaN	NaN	NaN	-1622.8	332.73	464.48	-1538.4	360.87	457.26	-1700.3	139.9	425.96	-1663.3	138.22	336.06	-1770.1	124.15	363.06	-1758.7	91.695	335.16	-1771	92.451	398.32	-1597.4	41.171	470.7	-1549.7	47.078	349.52	NaN	NaN	NaN	-1311.8	691.89	110.63	-1209.6	651.59	105.31	-1272.5	611.07	129.68	-1256.7	732.25	86.24	-1195.8	549.67	117.61	-1169.1	557.66	258.47	-1223.8	406.5	101.68	-1145.2	329.06	121.15	-1205.8	328.01	104.18	-1158.1	404.91	113.75	-1178	113.54	138.84	-1148.7	133.21	234.68	-1234.5	65.302	190.45	-1217.4	44.69	222.99	-1222.8	42.721	160.94	-1021.1	76.596	114.59	-993.04	93.24	233.69	-940.32	123.86	178.61	-1422.2	1590.8	332.43	-1523.8	1274.6	344.45
8	0.029167	NaN	NaN	NaN	-1288.8	1514.1	470.63	-1359.2	1542.2	150.33	-1332.2	1844.4	315.81	NaN	NaN	NaN	NaN	NaN	NaN	-1506.3	1070.5	347.68	-1508.8	1065.6	244.72	-1356.2	962.87	516.59	-1371.8	977.32	90.678	-1346.4	1108.4	507.58	-1383.6	1106.2	101.44	-1520.8	1031.7	294.57	-1447.2	676.38	489.33	-1391.1	589.88	460.64	-1469.4	592.05	469.5	-1371.9	674.11	483.02	-1474.7	522.2	462.51	NaN	NaN	NaN	-1587.7	395.92	477.13	NaN	NaN	NaN	-1619.3	333.59	464.76	-1534.3	360.97	457.79	-1698.7	141.31	426.36	-1662.1	139.67	336.56	-1769.1	126.59	363.55	-1757.9	94.164	335.44	-1770.4	94.785	398.62	-1597.4	41.185	470.77	-1549.7	47.066	349.63	NaN	NaN	NaN	-1305.9	690.75	110.74	-1203.7	650.33	105.86	-1266.7	609.86	129.83	-1250.6	731.1	86.664	-1190.4	548.21	118.09	-1163.9	556.52	258.66	-1219.1	405.21	102.31	-1141.1	327.23	122.05	-1201.6	326.64	104.86	-1153.4	403.22	114.57	-1175.4	112.38	139.61	-1146.1	131.56	235.54	-1232.5	65.012	191.11	-1215.8	44.128	223.62	-1221	42.277	161.59	-1019	73.88	115.71	-990.92	90.037	234.89	-937.72	120.01	179.97	-1416.9	1589.9	331.38	-1518.4	1273.3	343.33
9	0.033333	NaN	NaN	NaN	-1284	1513.2	469.83	-1353.5	1541.1	149.31	-1326.8	1843.6	314.97	NaN	NaN	NaN	NaN	NaN	NaN	-1500.5	1069.4	346.83	-1502.9	1064.4	243.87	-1350.6	962.23	516.18	-1365.4	976.02	90.294	-1341	1107.6	507.09	-1377.4	1104.9	100.69	-1515	1030.6	293.76	-1441.6	675.78	489.34	-1385.3	589.24	460.92	-1463.5	591.3	469.72	-1366	673.53	483.04	-1469.5	521.61	462.94	NaN	NaN	NaN	-1583.5	396.56	477.41	NaN	NaN	NaN	-1615.6	334.51	465.05	-1530.2	361.09	458.34	-1697.1	142.83	426.78	-1660.9	141.17	337.09	-1768	129.2	364.04	-1756.9	96.805	335.72	-1769.8	97.287	398.93	-1597.4	41.213	470.85	-1549.7	47.057	349.74	NaN	NaN	NaN	-1300	689.63	110.87	-1197.8	649.06	106.38	-1261.1	608.66	130	-1244.6	729.95	87.071	-1184.9	546.76	118.56	-1158.7	555.38	258.88	-1214.4	403.97	102.9	-1136.9	325.45	122.94	-1197.4	325.33	105.51	-1148.7	401.56	115.39	-1172.9	111.28	140.31	-1143.7	129.94	236.35	-1230.7	64.834	191.68	-1214.3	43.671	224.18	-1219.5	41.938	162.17	-1016.9	71.145	116.76	-988.92	86.755	236.03	-935.21	116.05	181.27	-1411.6	1589	330.28	-1512.9	1272.1	342.19
